<svg width="24" height="24" viewBox="0 0 24 24" fill="none" xmlns="http://www.w3.org/2000/svg">
<rect width="24" height="24" rx="3.2" fill="#EEF4F8"/>
<path d="M5.84426 19.2008C5.566 19.2008 5.32252 19.0966 5.11382 18.8881C4.90513 18.6797 4.80078 18.4365 4.80078 18.1586V7.73637C4.80078 7.45844 4.90513 7.21526 5.11382 7.00681C5.32252 6.79837 5.566 6.69415 5.84426 6.69415H12.8877L11.8443 7.73637H5.84426V18.1586H16.279V12.1137L17.3225 11.0715V18.1586C17.3225 18.4365 17.2182 18.6797 17.0095 18.8881C16.8008 19.0966 16.5573 19.2008 16.279 19.2008H5.84426ZM14.2269 6.83311L14.9747 7.56266L10.0182 12.4958V13.9897H11.4964L16.4703 9.02177L17.2008 9.75132L12.2443 14.7192C12.1515 14.8119 12.0385 14.8871 11.9051 14.9451C11.7718 15.003 11.6356 15.0319 11.4964 15.0319H9.49643C9.34571 15.0319 9.22107 14.9827 9.12252 14.8843C9.02397 14.7858 8.97469 14.6613 8.97469 14.5108V12.5132C8.97469 12.3742 9.00368 12.2382 9.06165 12.105C9.11962 11.9718 9.19498 11.8589 9.28774 11.7663L14.2269 6.83311ZM17.2008 9.75132L14.2269 6.83311L15.966 5.09608C16.1631 4.89921 16.4095 4.80078 16.7051 4.80078C17.0008 4.80078 17.2472 4.905 17.4443 5.11345L18.9051 6.58992C19.1022 6.79837 19.2008 7.04445 19.2008 7.32816C19.2008 7.61188 19.0964 7.85217 18.8877 8.04903L17.2008 9.75132Z" fill="#333333"/>
</svg>
