<svg width="28" height="28" viewBox="0 0 28 28" fill="none" xmlns="http://www.w3.org/2000/svg">
<g id="Frame 26085883">
<mask id="mask0_27412_176854" style="mask-type:alpha" maskUnits="userSpaceOnUse" x="0" y="0" width="28" height="28">
<rect id="Bounding box" x="0.5" y="0.5" width="27" height="27" fill="#D9D9D9"/>
</mask>
<g mask="url(#mask0_27412_176854)">
<path id="system_update_alt" d="M4.74263 23.1784C4.16072 23.1784 3.66816 22.9768 3.26496 22.5736C2.86176 22.1704 2.66016 21.6779 2.66016 21.096V7.98092C2.66016 7.399 2.86176 6.90644 3.26496 6.50324C3.66816 6.10004 4.16072 5.89844 4.74263 5.89844H9.12909C9.37426 5.89844 9.57954 5.98115 9.74495 6.14658C9.91036 6.31199 9.99306 6.51727 9.99306 6.76244C9.99306 7.00761 9.91036 7.21289 9.74495 7.3783C9.57954 7.54371 9.37426 7.62642 9.12909 7.62642H4.74263C4.65401 7.62642 4.57276 7.66334 4.4989 7.73718C4.42505 7.81104 4.38813 7.89229 4.38813 7.98092V21.096C4.38813 21.1846 4.42505 21.2658 4.4989 21.3397C4.57276 21.4135 4.65401 21.4505 4.74263 21.4505H22.4657C22.5543 21.4505 22.6356 21.4135 22.7094 21.3397C22.7833 21.2658 22.8202 21.1846 22.8202 21.096V7.98092C22.8202 7.89229 22.7833 7.81104 22.7094 7.73718C22.6356 7.66334 22.5543 7.62642 22.4657 7.62642H18.0792C17.8341 7.62642 17.6288 7.54371 17.4634 7.3783C17.298 7.21289 17.2153 7.00761 17.2153 6.76244C17.2153 6.51727 17.298 6.31199 17.4634 6.14658C17.6288 5.98115 17.8341 5.89844 18.0792 5.89844H22.4657C23.0476 5.89844 23.5402 6.10004 23.9434 6.50324C24.3466 6.90644 24.5482 7.399 24.5482 7.98092V21.096C24.5482 21.6779 24.3466 22.1704 23.9434 22.5736C23.5402 22.9768 23.0476 23.1784 22.4657 23.1784H4.74263ZM13.6042 17.733C13.4653 17.733 13.3361 17.7109 13.2165 17.6666C13.0968 17.6222 12.9831 17.5462 12.8753 17.4384L8.82116 13.3842C8.66164 13.2247 8.58189 13.032 8.58189 12.806C8.58189 12.5801 8.67125 12.3777 8.84996 12.199C9.01685 12.0321 9.21918 11.9487 9.45695 11.9487C9.69472 11.9487 9.89705 12.0321 10.0639 12.199L12.7402 14.8752V6.76244C12.7402 6.51727 12.8229 6.31199 12.9883 6.14658C13.1537 5.98115 13.359 5.89844 13.6042 5.89844C13.8493 5.89844 14.0546 5.98115 14.22 6.14658C14.3854 6.31199 14.4681 6.51727 14.4681 6.76244V14.8752L17.1732 12.1702C17.3327 12.0107 17.5254 11.931 17.7514 11.931C17.9773 11.931 18.1797 12.0203 18.3584 12.199C18.5253 12.3659 18.6087 12.5682 18.6087 12.806C18.6087 13.0438 18.5253 13.2461 18.3584 13.413L14.333 17.4384C14.2252 17.5462 14.1115 17.6222 13.9918 17.6666C13.8722 17.7109 13.743 17.733 13.6042 17.733Z" fill="#6E6D7A"/>
</g>
</g>
</svg>
